<?xml version="1.0" standalone="no"?>
<!DOCTYPE svg PUBLIC "-//W3C//DTD SVG 20010904//EN"
 "http://www.w3.org/TR/2001/REC-SVG-20010904/DTD/svg10.dtd">
<svg version="1.0" xmlns="http://www.w3.org/2000/svg"
 width="512.000000pt" height="512.000000pt" viewBox="0 0 512.000000 512.000000"
 preserveAspectRatio="xMidYMid meet">
<metadata>
Created by potrace 1.14, written by Peter Selinger 2001-2017
</metadata>
<g transform="translate(0.000000,512.000000) scale(0.100000,-0.100000)"
fill="#000000" stroke="none">
<path d="M1312 5111 c-22 -13 -43 -125 -57 -301 -2 -19 -6 -160 -10 -314 l-7
-279 -48 -91 c-63 -122 -111 -298 -112 -416 -1 -8 -11 -30 -25 -48 -38 -51
-55 -101 -58 -173 -4 -68 13 -144 39 -184 37 -56 -57 -300 -229 -600 -245
-427 -351 -690 -380 -950 -4 -33 -9 -63 -11 -67 -3 -4 -5 -77 -5 -162 1 -133
7 -217 26 -311 2 -11 9 -45 14 -75 91 -463 445 -815 996 -990 109 -34 273 -75
345 -85 25 -3 52 -8 60 -10 29 -8 247 -34 350 -42 207 -15 758 -7 855 12 11 2
47 7 80 10 262 26 619 124 815 224 164 83 285 167 390 272 204 203 306 419
355 746 21 142 21 373 0 484 -3 13 -7 41 -11 63 -14 98 -73 290 -132 431 -40
98 -159 318 -298 555 -15 27 -78 156 -99 205 -54 129 -90 262 -75 280 26 31
47 122 45 190 -3 74 -21 128 -61 181 -14 17 -24 36 -23 40 5 19 -14 144 -33
219 -11 44 -44 130 -74 190 l-52 110 -6 265 c-4 146 -8 285 -11 310 -2 25 -7
77 -10 115 -11 123 -36 205 -62 205 -33 0 -182 -184 -322 -397 -40 -62 -78
-113 -82 -113 -5 0 -28 9 -52 19 -125 57 -367 120 -567 146 -93 13 -317 12
-405 0 -49 -7 -110 -16 -135 -20 -125 -18 -397 -96 -469 -135 -11 -5 -24 -10
-29 -10 -5 0 -44 53 -87 118 -106 159 -203 287 -260 345 -50 50 -53 51 -73 38z"/>
</g>
</svg>
